PathFileType	4	(X/Y/Z)	C:/Users/opensim2020/Desktop/walking_exp_matlab/subject01_walking16_run.trc																																																																																																																																																																																											
DataRate	CameraRate	NumFrames	NumMarkers	Units	OrigDataRate	OrigDataStartFrame	OrigNumFrames																																																																																																																																																																																							
100	100	5	63	mm	100	392	89																																																																																																																																																																																							
Frame#	Time	LKNE			RELB			LTHI			RUPA			LTIB			RFRM			LTOE			LSHO			RWRA			RSHO			RWRB			STRN			RFIN			RBHD			CLAV			LHEE			LFHD			RASI			RFHD			LBHD			C7			LWRB			LWRA			LFRM			RTHI			RKNE			LELB			LFIN			LUPA			RTIB			RANK			RTOE			RHEE			T10			RBAK			LASI			LPSI			RPSI			LANK			*39			*40			*41			*42			*43			*44			*45			*46			*47			*48			*49			*50			*51			*52			*53			*54			*55			*56			*57			*58			*59			*60			*61			*62		
		X1	Y1	Z1	X2	Y2	Z2	X3	Y3	Z3	X4	Y4	Z4	X5	Y5	Z5	X6	Y6	Z6	X7	Y7	Z7	X8	Y8	Z8	X9	Y9	Z9	X10	Y10	Z10	X11	Y11	Z11	X12	Y12	Z12	X13	Y13	Z13	X14	Y14	Z14	X15	Y15	Z15	X16	Y16	Z16	X17	Y17	Z17	X18	Y18	Z18	X19	Y19	Z19	X20	Y20	Z20	X21	Y21	Z21	X22	Y22	Z22	X23	Y23	Z23	X24	Y24	Z24	X25	Y25	Z25	X26	Y26	Z26	X27	Y27	Z27	X28	Y28	Z28	X29	Y29	Z29	X30	Y30	Z30	X31	Y31	Z31	X32	Y32	Z32	X33	Y33	Z33	X34	Y34	Z34	X35	Y35	Z35	X36	Y36	Z36	X37	Y37	Z37	X38	Y38	Z38	X39	Y39	Z39	X40	Y40	Z40	X41	Y41	Z41	X42	Y42	Z42	X43	Y43	Z43	X44	Y44	Z44	X45	Y45	Z45	X46	Y46	Z46	X47	Y47	Z47	X48	Y48	Z48	X49	Y49	Z49	X50	Y50	Z50	X51	Y51	Z51	X52	Y52	Z52	X53	Y53	Z53	X54	Y54	Z54	X55	Y55	Z55	X56	Y56	Z56	X57	Y57	Z57	X58	Y58	Z58	X59	Y59	Z59	X60	Y60	Z60	X61	Y61	Z61	X62	Y62	Z62	X63	Y63	Z63
																																																																																																																																																																																														
45	0.44	8.22425	450.84323	-566.7854	-39.09015	1232.09827	-158.12344	79.78905	567.69604	-585.52765	46.5709	1309.078	-217.39612	-150.99646	345.86124	-574.2948	-28.24436	1110.79883	-111.44096	-309.62106	52.46759	-493.84103	300.65982	1350.01343	-597.07166	54.62078	995.74652	-122.28838	218.47287	1369.26709	-307.13647	10.67656	993.02576	-85.68488	331.79352	1165.46851	-416.88602	68.64487	930.61023	-69.2147	197.5507	1583.47351	-391.83606	307.52161	1324.599	-430.84305	-358.58185	236.3192	-483.34991	292.56519	1627.67383	-524.38208	218.72723	916.79944	-347.93747	306.41528	1643.57593	-412.99313	184.95625	1569.51257	-510.36145	171.17882	1395.21252	-479.48267	521.55725	1132.23645	-538.92932	480.42392	1174.27673	-530.7915	453.92712	1082.78882	-626.96442	363.38135	692.69244	-297.36496	481.30692	585.97357	-326.56033	370.40466	1038.81848	-706.71741	546.75958	1200.46106	-500.05035	340.44022	1185.26416	-686.62152	449.16888	408.10059	-307.65622	429.61353	195.3802	-347.37503	563.28784	134.22189	-367.40222	374.87186	158.36716	-394.10587	89.59059	1118.6261	-484.05518	83.19842	1227.06384	-413.50122	224.40097	891.51453	-548.29858	42.86485	924.62872	-507.39606	43.38553	930.40625	-362.32703	-322.74774	203.40199	-530.17413	1973.18176	1023.38086	-3101.87402	2012.55725	1022.08075	-3140.62622	NaN	NaN	NaN	NaN	NaN	NaN	NaN	NaN	NaN	NaN	NaN	NaN	NaN	NaN	NaN	NaN	NaN	NaN	NaN	NaN	NaN	NaN	NaN	NaN	289.521	1674.55518	-437.93747	NaN	NaN	NaN	NaN	NaN	NaN	NaN	NaN	NaN	NaN	NaN	NaN	NaN	NaN	NaN	NaN	NaN	NaN	NaN	NaN	NaN	NaN	NaN	NaN	NaN	NaN	NaN	NaN	NaN	NaN	NaN	NaN	NaN	NaN	NaN	NaN	NaN	NaN	NaN
46	0.45	56.35646	453.54733	-566.86536	3.75075	1236.96521	-162.40253	127.24408	571.07843	-587.28778	91.06071	1314.4928	-220.04187	-105.33088	352.61325	-577.08691	15.04055	1115.63611	-113.96284	-279.87378	70.86698	-492.72781	349.79846	1353.03979	-593.32886	99.55228	1000.91595	-122.85186	264.17456	1371.97083	-306.17801	54.59254	998.14777	-87.05592	379.73959	1170.29736	-413.73364	113.04553	935.83148	-68.93498	245.49582	1586.59314	-390.30072	354.08728	1328.87903	-428.3544	-322.02319	257.65207	-491.65552	340.32425	1629.72827	-523.48071	270.10126	918.10132	-350.4552	354.81485	1645.86389	-411.96378	232.32121	1572.38208	-508.81009	218.3761	1397.72388	-478.49197	560.80804	1142.29077	-532.96771	517.95654	1182.65576	-526.3222	497.54108	1089.56299	-622.76831	410.05051	686.75195	-298.61536	528.27283	578.93048	-326.90469	417.94934	1042.59302	-704.5661	581.37012	1211.6427	-491.67062	389.49744	1189.3783	-682.9776	512.94952	399.22501	-309.33835	511.77985	186.77287	-350.81012	649.24554	132.93571	-374.35529	459.72153	148.69131	-398.09003	140.26151	1120.52576	-486.99899	131.22046	1229.6394	-415.48071	275.7558	893.3042	-549.88702	95.27979	928.71552	-510.38004	95.47453	935.0528	-365.03052	-285.81021	221.89189	-535.01141	1973.08887	1023.42145	-3101.82275	2012.60474	1022.09235	-3140.59229	NaN	NaN	NaN	NaN	NaN	NaN	NaN	NaN	NaN	NaN	NaN	NaN	NaN	NaN	NaN	NaN	NaN	NaN	NaN	NaN	NaN	NaN	NaN	NaN	338.67722	1677.67273	-437.06998	NaN	NaN	NaN	NaN	NaN	NaN	NaN	NaN	NaN	NaN	NaN	NaN	NaN	NaN	NaN	NaN	NaN	NaN	NaN	NaN	NaN	NaN	NaN	NaN	NaN	NaN	NaN	NaN	NaN	NaN	NaN	NaN	NaN	NaN	NaN	NaN	NaN	NaN	NaN
47	0.46	109.79958	452.33429	-566.26984	48.0009	1239.06604	-165.89838	179.30629	571.63464	-587.6347	136.24561	1317.83936	-221.98299	-55.43204	357.85544	-579.85706	60.301	1117.68555	-116.32606	-247.0755	91.60443	-492.76035	398.5585	1355.55396	-590.14435	145.41536	1003.7077	-124.01331	310.37024	1373.67651	-305.14642	100.08158	1000.21106	-88.82215	427.75726	1174.18433	-410.93393	159.03925	938.47614	-69.15872	293.31821	1588.85962	-388.81171	400.94086	1332.17163	-426.20483	-281.21988	279.9689	-499.09412	387.84753	1631.47144	-522.36786	320.9949	918.00134	-352.57916	402.76974	1647.77625	-411.00995	279.62927	1574.43933	-507.34995	265.48285	1399.63464	-477.43231	599.58032	1147.87561	-527.92664	555.59985	1187.03259	-522.64178	539.86963	1093.83582	-620.12018	457.46634	678.84412	-299.15598	573.44269	569.09521	-327.75528	463.38483	1044.86743	-703.45111	616.52606	1217.56396	-484.91315	436.05444	1192.64417	-681.14355	571.01001	389.91934	-311.12021	586.4809	178.4093	-353.46774	726.34119	128.83884	-380.19748	536.67493	140.13956	-401.20267	189.66714	1122.7616	-488.88361	179.14139	1231.65613	-416.78769	326.33899	894.47174	-550.66913	147.62152	933.1123	-512.85358	147.63412	938.81885	-367.51627	-244.90915	241.18481	-539.38904	1973.15967	1023.50012	-3101.92456	2012.5658	1021.99103	-3140.73315	NaN	NaN	NaN	NaN	NaN	NaN	NaN	NaN	NaN	NaN	NaN	NaN	NaN	NaN	NaN	NaN	NaN	NaN	NaN	NaN	NaN	NaN	NaN	NaN	387.22968	1679.75903	-436.2486	NaN	NaN	NaN	NaN	NaN	NaN	NaN	NaN	NaN	NaN	NaN	NaN	NaN	NaN	NaN	NaN	NaN	NaN	NaN	NaN	NaN	NaN	NaN	NaN	NaN	NaN	NaN	NaN	NaN	NaN	NaN	NaN	NaN	NaN	NaN	NaN	NaN	NaN	NaN
48	0.47	167.41426	448.77823	-566.29388	94.00813	1238.1582	-168.55563	234.79759	569.44598	-587.99536	182.50084	1318.85571	-223.11925	-1.53386	362.22461	-581.56421	107.11144	1116.76611	-118.75558	-211.48314	112.49166	-495.46774	446.61972	1357.20825	-587.72467	194.73518	1004.02808	-123.87212	357.09924	1374.4126	-304.15231	147.28769	999.40234	-90.97737	475.92191	1176.89429	-408.95352	207.01768	938.50446	-70.15205	340.96103	1590.59021	-387.56357	448.09146	1334.48254	-424.51114	-234.62119	302.70511	-502.63858	435.33456	1632.83826	-521.26416	371.55444	917.30243	-354.56055	450.55554	1649.24475	-409.91516	327.11179	1576.00549	-505.94717	312.70697	1401.01416	-476.30548	638.28711	1148.40039	-523.66931	593.93445	1187.3252	-519.62012	580.49268	1094.96326	-617.96802	504.70343	669.30804	-298.98209	616.73102	556.93854	-328.63828	506.41351	1046.15247	-703.59576	653.6701	1217.72571	-479.79422	481.22736	1194.40283	-681.2113	622.2074	379.90903	-311.83154	652.26617	169.70671	-355.73666	793.61108	123.27371	-385.23157	603.62897	131.44838	-403.65686	238.69601	1124.77405	-489.57159	226.85063	1232.99353	-417.45099	376.991	895.21277	-552.25421	199.97679	937.49988	-514.86072	199.57991	941.27814	-369.59164	-200.11707	261.14264	-543.21252	1973.18091	1023.45343	-3101.90186	2012.63293	1022.10864	-3140.67383	NaN	NaN	NaN	NaN	NaN	NaN	NaN	NaN	NaN	NaN	NaN	NaN	NaN	NaN	NaN	NaN	NaN	NaN	NaN	NaN	NaN	NaN	NaN	NaN	435.14499	1681.4325	-435.37762	NaN	NaN	NaN	NaN	NaN	NaN	NaN	NaN	NaN	NaN	NaN	NaN	NaN	NaN	NaN	NaN	NaN	NaN	NaN	NaN	NaN	NaN	NaN	NaN	NaN	NaN	NaN	NaN	NaN	NaN	NaN	NaN	NaN	NaN	NaN	NaN	NaN	NaN	NaN
49	0.48	228.33543	444.39429	-566.69769	141.48611	1234.59375	-170.5752	292.65912	566.54089	-588.59277	230.12244	1317.02368	-223.3829	55.36461	366.53207	-582.98633	155.47688	1112.95935	-121.19382	-170.53433	133.33011	-500.9101	494.2652	1358.5	-586.28784	244.72749	1001.70795	-125.37848	404.19693	1374.34424	-303.12689	197.02586	996.03314	-93.54985	524.15131	1178.36853	-408.01089	257.23575	935.98816	-72.16229	388.43173	1591.74255	-386.25592	495.49603	1335.87476	-423.25357	-183.47972	324.94284	-503.32852	482.71735	1633.59094	-520.06842	422.12534	916.28882	-356.29211	498.22696	1650.1123	-408.84039	374.42441	1577.01379	-504.56158	360.05743	1401.88452	-474.97061	677.16364	1143.5249	-520.43689	633.51605	1183.59778	-517.11401	620.21637	1093.03528	-616.86053	551.00494	658.43536	-297.866	658.52094	543.42657	-329.15344	546.68701	1046.75317	-704.77692	693.55658	1211.84351	-475.8963	524.64063	1194.58862	-682.68085	667.34735	368.00699	-312.67032	708.25055	159.96255	-357.39337	850.87482	114.60767	-389.09634	661.55981	122.22032	-405.24084	286.86197	1126.47156	-489.32516	274.332	1233.58765	-417.42148	427.32983	896.05035	-553.56708	251.98769	941.17242	-516.25439	250.91483	941.92078	-371.43735	-150.87515	282.41745	-545.63538	1973.05554	1023.5755	-3101.98926	2012.48059	1022.06335	-3140.87842	NaN	NaN	NaN	NaN	NaN	NaN	NaN	NaN	NaN	NaN	NaN	NaN	NaN	NaN	NaN	NaN	NaN	NaN	NaN	NaN	NaN	NaN	NaN	NaN	482.65332	1682.36206	-434.54291	NaN	NaN	NaN	NaN	NaN	NaN	NaN	NaN	NaN	NaN	NaN	NaN	NaN	NaN	NaN	NaN	NaN	NaN	NaN	NaN	NaN	NaN	NaN	NaN	NaN	NaN	NaN	NaN	NaN	NaN	NaN	NaN	NaN	NaN	NaN	NaN	NaN	NaN	NaN
